<?xml version="1.0" encoding="utf-8"?>
<!-- Generator: Adobe Illustrator 16.0.0, SVG Export Plug-In . SVG Version: 6.00 Build 0)  -->
<!DOCTYPE svg PUBLIC "-//W3C//DTD SVG 1.1//EN" "http://www.w3.org/Graphics/SVG/1.1/DTD/svg11.dtd">
<svg version="1.1" id="Layer_1" xmlns="http://www.w3.org/2000/svg" xmlns:xlink="http://www.w3.org/1999/xlink" x="0px" y="0px"
	 width="200px" height="200px" viewBox="0 0 200 200" enable-background="new 0 0 200 200" xml:space="preserve">
<g>
	<path fill="#FCFAFA" d="M101.484,9.766c29.604,0,59.211,0.14,88.812-0.122c5.715-0.052,8.162-0.015,8.099,7.411
		c-0.487,57.947-0.345,115.899-0.151,173.846c0.019,5.71,0.019,8.154-7.408,8.098c-59.205-0.486-118.414-0.344-177.622-0.151
		c-5.711,0.021-8.162,0.021-8.1-7.407C5.602,133.493,5.659,75.542,5.09,17.598C5.004,8.803,9.05,9.715,14.562,9.73
		C43.536,9.807,72.509,9.766,101.484,9.766z M95.383,91.106c0,4.403-0.237,8.825,0.088,13.205c0.193,2.606-1.32,6.875,3.481,6.802
		c3.622-0.057,5.472-3.188,5.721-6.43c0.428-5.632,0.266-11.312,0.316-16.97c0.158-16.715,0.152-16.723,15.983-16.904
		c6.283-0.07,12.574,0.041,18.849-0.221c2.573-0.11,4.843-1.251,4.781-4.528c-0.059-3.208-2.404-4.079-4.87-4.539
		c-1.829-0.344-3.746-0.156-5.618-0.27c-8.735-0.539-19.248,3.406-25.795-1.68c-7.992-6.208-1.872-17.646-3.223-26.691
		c-0.459-3.093-0.547-7.85-3.142-7.968c-3.665-0.167-6.146,3.628-6.812,7.691c-1.478,9.045,4.563,20.55-3.014,26.746
		c-7.042,5.761-18.272,0.912-27.547,2.363c-1.193,0.188-2.293,1.277-3.454,1.306c-2.888,0.081-6.666-1.318-6.145,3.768
		c0.299,2.919,2.776,3.886,5.464,3.909c8.175,0.078,16.379,0.543,24.515-0.004c8.452-0.564,11.473,2.905,10.513,10.988
		C95.106,84.78,95.415,87.96,95.383,91.106z"/>
	<path fill="#CC0000" d="M100.411,94.151c0.02-3.811-0.355-7.666,0.093-11.424c1.162-9.796-2.498-14-12.742-13.317
		c-9.86,0.662-19.805,0.099-29.711,0.005c-3.26-0.027-6.261-1.2-6.622-4.738c-0.633-6.165,3.944-4.468,7.446-4.568
		c1.406-0.036,2.739-1.354,4.187-1.582c11.241-1.759,24.853,4.119,33.387-2.863c9.183-7.51,1.862-21.453,3.652-32.415
		c0.803-4.926,3.811-9.524,8.254-9.322c3.146,0.143,3.252,5.91,3.81,9.658c1.637,10.963-5.781,24.825,3.906,32.35
		c7.937,6.163,20.675,1.382,31.262,2.035c2.271,0.139,4.598-0.088,6.811,0.327c2.99,0.558,5.832,1.614,5.904,5.501
		c0.074,3.971-2.677,5.354-5.795,5.487c-7.604,0.318-15.229,0.185-22.845,0.268c-19.188,0.22-19.181,0.228-19.372,20.488
		c-0.063,6.856,0.135,13.741-0.384,20.566c-0.303,3.929-2.546,7.726-6.936,7.796c-5.819,0.087-3.984-5.087-4.219-8.246
		C100.103,104.848,100.39,99.487,100.411,94.151z"/>
</g>
<text transform="matrix(1 0 0 1 57.6675 178.334)" fill="#CC0000" font-family="'MyriadPro-Regular'" font-size="48">ADD</text>
</svg>
