<?xml version="1.0" encoding="utf-8"?>
<!-- Generator: Adobe Illustrator 16.0.0, SVG Export Plug-In . SVG Version: 6.00 Build 0)  -->
<!DOCTYPE svg PUBLIC "-//W3C//DTD SVG 1.1//EN" "http://www.w3.org/Graphics/SVG/1.1/DTD/svg11.dtd">
<svg version="1.1" id="Layer_1" xmlns="http://www.w3.org/2000/svg" xmlns:xlink="http://www.w3.org/1999/xlink" x="0px" y="0px"
	 width="200px" height="200px" viewBox="0 0 200 200" enable-background="new 0 0 200 200" xml:space="preserve">
<g>
	<path fill="#FCFAFA" d="M101.934,7.897c31.303,0,62.611,0.148,93.912-0.129c6.043-0.055,8.631-0.015,8.564,7.837
		c-0.516,61.276-0.365,122.556-0.16,183.833c0.02,6.037,0.02,8.623-7.834,8.562c-62.605-0.513-125.216-0.363-187.825-0.16
		c-6.039,0.021-8.63,0.021-8.564-7.832C0.542,138.73,0.603,77.451,0.001,16.179c-0.091-9.3,4.188-8.336,10.016-8.32
		C40.656,7.94,71.293,7.897,101.934,7.897z M95.481,93.909c0,4.656-0.25,9.332,0.093,13.963c0.205,2.756-1.396,7.271,3.681,7.192
		c3.83-0.059,5.787-3.371,6.05-6.799c0.453-5.955,0.281-11.961,0.336-17.944c0.166-17.676,0.16-17.684,16.9-17.875
		c6.645-0.074,13.297,0.043,19.932-0.234c2.721-0.117,5.121-1.323,5.057-4.788c-0.063-3.392-2.543-4.313-5.151-4.8
		c-1.933-0.363-3.961-0.165-5.942-0.285c-9.236-0.57-20.353,3.602-27.275-1.776c-8.451-6.564-1.98-18.659-3.408-28.224
		c-0.486-3.271-0.578-8.301-3.322-8.426c-3.876-0.176-6.5,3.836-7.203,8.133c-1.563,9.565,4.826,21.73-3.187,28.282
		c-7.446,6.092-19.322,0.964-29.13,2.498c-1.262,0.199-2.425,1.351-3.652,1.381c-3.054,0.086-7.048-1.393-6.497,3.985
		c0.316,3.087,2.935,4.109,5.778,4.133c8.644,0.082,17.32,0.574,25.923-0.004c8.938-0.597,12.132,3.072,11.117,11.619
		C95.188,87.22,95.514,90.583,95.481,93.909z"/>
	<path fill="#CC0000" d="M103.175,95.113c0.02-3.921-0.367-7.888,0.095-11.755c1.196-10.08-2.57-14.407-13.111-13.703
		c-10.146,0.681-20.379,0.102-30.573,0.005c-3.354-0.027-6.442-1.234-6.814-4.875c-0.651-6.343,4.059-4.597,7.662-4.7
		c1.447-0.037,2.819-1.394,4.308-1.628c11.567-1.81,25.574,4.238,34.355-2.946c9.45-7.728,1.916-22.075,3.759-33.355
		c0.826-5.068,3.922-9.8,8.494-9.592c3.236,0.147,3.345,6.081,3.919,9.938c1.684,11.281-5.948,25.545,4.02,33.288
		c8.166,6.342,21.274,1.422,32.168,2.094c2.337,0.143,4.731-0.091,7.008,0.336c3.077,0.574,6.001,1.661,6.075,5.661
		c0.076,4.086-2.754,5.509-5.963,5.646c-7.825,0.327-15.671,0.19-23.507,0.276c-19.744,0.226-19.736,0.234-19.933,21.082
		c-0.064,7.055,0.139,14.139-0.396,21.162c-0.312,4.043-2.619,7.949-7.136,8.021c-5.988,0.09-4.1-5.234-4.341-8.484
		C102.858,106.119,103.153,100.604,103.175,95.113z"/>
</g>
<text transform="matrix(1 0 0 1 56.6675 180.334)" fill="#CC0000" font-family="'MyriadPro-Regular'" font-size="48">ADD</text>
</svg>
