<?xml version="1.0" encoding="utf-8"?>
<!-- Generator: Adobe Illustrator 16.0.0, SVG Export Plug-In . SVG Version: 6.00 Build 0)  -->
<!DOCTYPE svg PUBLIC "-//W3C//DTD SVG 1.1//EN" "http://www.w3.org/Graphics/SVG/1.1/DTD/svg11.dtd">
<svg version="1.1" id="Layer_1" xmlns="http://www.w3.org/2000/svg" xmlns:xlink="http://www.w3.org/1999/xlink" x="0px" y="0px"
	 width="200px" height="200px" viewBox="0 0 200 200" enable-background="new 0 0 200 200" xml:space="preserve">
<g>
	<path fill-rule="evenodd" clip-rule="evenodd" fill="#FCFAFA" d="M101.934,2.897c31.303,0,62.611,0.148,93.912-0.129
		c6.043-0.055,8.631-0.015,8.564,7.837c-0.516,61.276-0.365,122.556-0.16,183.832c0.02,6.037,0.02,8.624-7.834,8.562
		c-62.605-0.512-125.216-0.363-187.825-0.16c-6.039,0.02-8.63,0.02-8.564-7.832C0.542,133.731,0.603,72.451,0.001,11.179
		c-0.091-9.3,4.188-8.336,10.016-8.32C40.656,2.94,71.293,2.897,101.934,2.897z M95.481,88.909c0,4.656-0.25,9.332,0.093,13.963
		c0.205,2.756-1.396,7.271,3.681,7.193c3.83-0.059,5.787-3.372,6.05-6.8c0.453-5.955,0.281-11.961,0.336-17.943
		c0.166-17.676,0.16-17.684,16.9-17.875c6.645-0.074,13.297,0.043,19.932-0.234c2.721-0.117,5.121-1.323,5.057-4.788
		c-0.064-3.392-2.543-4.313-5.152-4.8c-1.932-0.363-3.961-0.165-5.943-0.285c-9.236-0.57-20.352,3.602-27.275-1.776
		c-8.451-6.564-1.98-18.659-3.408-28.224c-0.486-3.271-0.578-8.301-3.322-8.426c-3.877-0.176-6.501,3.836-7.203,8.133
		c-1.563,9.565,4.826,21.73-3.187,28.282c-7.446,6.092-19.322,0.964-29.13,2.498c-1.262,0.199-2.425,1.351-3.652,1.381
		c-3.054,0.086-7.048-1.393-6.497,3.985c0.316,3.087,2.935,4.109,5.778,4.133c8.644,0.082,17.32,0.574,25.923-0.004
		c8.938-0.597,12.132,3.072,11.117,11.619C95.188,82.22,95.514,85.583,95.481,88.909z"/>
	<path fill-rule="evenodd" clip-rule="evenodd" fill="#CC0000" d="M95.499,88.909c0.016-3.325-0.311-6.689,0.08-9.967
		c1.015-8.547-2.179-12.216-11.117-11.619c-8.603,0.578-17.279,0.086-25.923,0.004c-2.843-0.023-5.462-1.046-5.778-4.133
		c-0.552-5.378,3.442-3.898,6.497-3.985c1.227-0.031,2.39-1.182,3.652-1.381c9.808-1.534,21.684,3.594,29.13-2.498
		c8.012-6.552,1.624-18.717,3.187-28.282c0.701-4.297,3.325-8.309,7.203-8.133c2.744,0.125,2.836,5.156,3.322,8.426
		c1.428,9.565-5.043,21.659,3.408,28.224c6.924,5.378,18.039,1.206,27.275,1.776c1.982,0.121,4.012-0.078,5.943,0.285
		c2.609,0.487,5.088,1.408,5.152,4.8c0.064,3.465-2.336,4.671-5.057,4.788c-6.635,0.277-13.287,0.161-19.932,0.234
		c-16.74,0.191-16.734,0.199-16.9,17.875c-0.055,5.982,0.117,11.989-0.336,17.943c-0.264,3.428-2.221,6.741-6.05,6.8
		c-5.077,0.077-3.476-4.438-3.681-7.193C95.231,98.24,95.481,93.564,95.499,88.909z"/>
</g>
<text transform="matrix(1 0 0 1 54.6675 172.334)" fill="#CC0000" font-family="'MyriadPro-Regular'" font-size="48">ADD</text>
</svg>
