<?xml version="1.0" encoding="utf-8"?>
<!-- Generator: Adobe Illustrator 16.0.0, SVG Export Plug-In . SVG Version: 6.00 Build 0)  -->
<!DOCTYPE svg PUBLIC "-//W3C//DTD SVG 1.1//EN" "http://www.w3.org/Graphics/SVG/1.1/DTD/svg11.dtd">
<svg version="1.1" id="Layer_1" xmlns="http://www.w3.org/2000/svg" xmlns:xlink="http://www.w3.org/1999/xlink" x="0px" y="0px"
	 width="200px" height="200px" viewBox="0 0 200 200" enable-background="new 0 0 200 200" xml:space="preserve">
<g>
	<path fill="none" d="M-27.95-46.5c81.149,0,162.302,0,243.45,0c0,105,0,210.002,0,315c-81.15,0-162.302,0-243.45,0
		C-27.95,163.502-27.95,58.501-27.95-46.5z M30.603,84.542c0,21.104-0.124,41.593,0.034,62.082
		c0.162,21.142,6.521,29.887,27.507,35.837c20.517,5.823,41.174,4.293,62.306,1.563c19.809-2.559,31.089-11.22,33.378-30.281
		c4.391-0.229,7.733,0.181,10.721-0.644c29.197-8.059,36.794-31.879,13.961-50.976c-12.32-10.306-24.91-24.945-46.089-20.909
		c-8.924,1.697-18.906-1.934-31.009-3.476c8.749-8.188,14.905-15.511,10.939-26.021c-4.07-10.781-17.292-11.122-23.098-19.096
		c0.653-5.039,5.01-6.475,7.557-9.433c2.437-2.82,2.295-5.995,0.284-8.703c-1.97-2.647-5.097-3.91-8.542-3.477
		c-10.546,1.329-14.563,9.443-17.636,17.646c-2.516,6.716,0.81,12.211,6.48,16.505c5.607,4.246,13.998,4.715,17.932,13.954
		c-6.001,4.32-13.276,9.209-10.5,19.888C66.1,77.923,50.142,79.499,30.603,84.542z"/>
	<path fill="#999999" d="M30.603,84.542c19.537-5.043,35.497-6.618,54.22-5.538c-2.774-10.679,4.504-15.567,10.505-19.888
		c-3.934-9.239-12.327-9.708-17.936-13.955c-5.671-4.292-8.996-9.787-6.481-16.504c3.074-8.204,7.09-16.318,17.637-17.647
		c3.449-0.433,6.574,0.831,8.543,3.477c2.012,2.708,2.151,5.883-0.281,8.704c-2.552,2.958-6.913,4.395-7.561,9.433
		c5.805,7.974,19.028,8.315,23.097,19.095c3.97,10.51-2.189,17.833-10.938,26.022c12.105,1.542,22.084,5.174,31.007,3.477
		c21.184-4.037,33.773,10.603,46.094,20.908c22.828,19.097,15.231,42.914-13.961,50.973c-2.987,0.823-6.33,0.417-10.726,0.646
		c-2.288,19.063-13.569,27.724-33.379,30.281c-21.134,2.729-41.79,4.261-62.304-1.562c-20.987-5.951-27.346-14.695-27.508-35.837
		C30.479,126.133,30.603,105.646,30.603,84.542z M45.339,96.571c0,17.366-0.749,33.896,0.232,50.315
		c0.817,13.688,6.45,20.052,18.237,21.497c18.513,2.264,37.217,2.483,55.761,0.195c10.628-1.316,17.883-6.908,18.336-18.563
		c0.694-18.025,1.729-36.048-1.995-53.443C105.647,96.571,76.683,96.571,45.339,96.571z M154.42,105.743c0,12.277,0,22.676,0,33.074
		c6.608-6.064,21.827,1.04,21.689-13.325C175.992,113.038,166.082,109.771,154.42,105.743z"/>
	<path fill="none" d="M45.339,96.571c31.343,0,60.308,0,90.57,0c3.726,17.394,2.689,35.418,1.996,53.442
		c-0.45,11.656-7.706,17.248-18.335,18.563c-18.547,2.289-37.252,2.069-55.764-0.194c-11.788-1.441-17.42-7.809-18.238-21.498
		C44.59,130.465,45.339,113.938,45.339,96.571z"/>
	<path fill="none" d="M154.42,105.743c11.662,4.027,21.572,7.295,21.689,19.749c0.139,14.371-15.077,7.264-21.689,13.325
		C154.42,128.419,154.42,118.021,154.42,105.743z"/>
</g>
</svg>
