<?xml version="1.0" encoding="utf-8"?>
<!-- Generator: Adobe Illustrator 16.0.0, SVG Export Plug-In . SVG Version: 6.00 Build 0)  -->
<!DOCTYPE svg PUBLIC "-//W3C//DTD SVG 1.1//EN" "http://www.w3.org/Graphics/SVG/1.1/DTD/svg11.dtd">
<svg version="1.1" id="Layer_1" xmlns="http://www.w3.org/2000/svg" xmlns:xlink="http://www.w3.org/1999/xlink" x="0px" y="0px"
	 width="200px" height="200px" viewBox="0 0 200 200" enable-background="new 0 0 200 200" xml:space="preserve">
<g>
	<path fill-rule="evenodd" clip-rule="evenodd" fill="none" d="M13.239-15.954c59.102,0,118.206,0,177.307,0
		c0,78.015,0,156.031,0,234.045c-59.102,0-118.206,0-177.307,0C13.239,140.077,13.239,62.062,13.239-15.954z M55.884,81.41
		c0,15.681-0.09,30.904,0.024,46.127c0.118,15.708,4.75,22.205,20.034,26.627c14.943,4.326,29.987,3.189,45.379,1.16
		c14.426-1.9,22.642-8.335,24.308-22.499c3.198-0.17,5.633,0.135,7.809-0.478c21.262-5.988,26.796-23.684,10.168-37.872
		c-8.973-7.657-18.143-18.534-33.57-15.535c-6.499,1.26-13.766-1.437-22.583-2.583c6.372-6.084,10.858-11.525,7.967-19.334
		c-2.964-8.01-12.594-8.263-16.822-14.188c0.475-3.744,3.648-4.811,5.506-7.009c1.774-2.095,1.671-4.454,0.206-6.466
		c-1.434-1.967-3.712-2.905-6.221-2.583c-7.681,0.987-10.606,7.016-12.845,13.111c-1.832,4.99,0.59,9.073,4.72,12.263
		c4.084,3.155,10.195,3.504,13.06,10.368c-4.371,3.21-9.671,6.843-7.65,14.777C81.736,76.492,70.114,77.663,55.884,81.41z"/>
	<path fill-rule="evenodd" clip-rule="evenodd" fill="#FFFFFF" d="M55.884,81.41c14.229-3.747,25.852-4.917,39.489-4.114
		c-2.021-7.934,3.28-11.566,7.65-14.777c-2.864-6.864-8.975-7.213-13.06-10.368c-4.13-3.189-6.552-7.272-4.72-12.263
		c2.239-6.095,5.164-12.124,12.845-13.111c2.509-0.322,4.788,0.617,6.221,2.583c1.465,2.012,1.568,4.371-0.206,6.466
		c-1.858,2.199-5.032,3.266-5.506,7.009c4.228,5.925,13.858,6.178,16.822,14.188c2.892,7.809-1.595,13.25-7.967,19.334
		c8.817,1.146,16.084,3.844,22.583,2.583c15.428-2.999,24.598,7.878,33.57,15.535c16.628,14.188,11.094,31.884-10.168,37.872
		c-2.176,0.612-4.61,0.308-7.809,0.478c-1.666,14.164-9.882,20.599-24.308,22.499c-15.393,2.029-30.436,3.166-45.379-1.16
		c-15.284-4.422-19.916-10.919-20.034-26.627C55.794,112.313,55.884,97.09,55.884,81.41z M66.616,90.348
		c0,12.903-0.545,25.184,0.169,37.384c0.596,10.171,4.698,14.901,13.283,15.972c13.483,1.683,27.106,1.846,40.612,0.145
		c7.74-0.977,13.024-5.132,13.353-13.793c0.505-13.392,1.259-26.783-1.453-39.707C110.539,90.348,89.444,90.348,66.616,90.348z
		 M146.06,97.163c0,9.121,0,16.848,0,24.573c4.814-4.505,15.896,0.776,15.797-9.9C161.771,102.583,154.555,100.155,146.06,97.163z"
		/>
	<path fill-rule="evenodd" clip-rule="evenodd" fill="none" d="M66.616,90.348c22.828,0,43.923,0,65.964,0
		c2.712,12.924,1.958,26.315,1.453,39.707c-0.328,8.661-5.612,12.816-13.353,13.793c-13.506,1.701-27.129,1.538-40.612-0.145
		c-8.585-1.07-12.687-5.801-13.283-15.972C66.071,115.531,66.616,103.251,66.616,90.348z"/>
	<path fill-rule="evenodd" clip-rule="evenodd" fill="none" d="M146.06,97.163c8.495,2.992,15.712,5.42,15.797,14.673
		c0.099,10.677-10.982,5.396-15.797,9.9C146.06,114.011,146.06,106.284,146.06,97.163z"/>
</g>
</svg>
