<?xml version="1.0" encoding="utf-8"?>
<!-- Generator: Adobe Illustrator 16.0.0, SVG Export Plug-In . SVG Version: 6.00 Build 0)  -->
<!DOCTYPE svg PUBLIC "-//W3C//DTD SVG 1.1//EN" "http://www.w3.org/Graphics/SVG/1.1/DTD/svg11.dtd">
<svg version="1.1" id="Layer_1" xmlns="http://www.w3.org/2000/svg" xmlns:xlink="http://www.w3.org/1999/xlink" x="0px" y="0px"
	 width="200px" height="200px" viewBox="0 0 200 200" enable-background="new 0 0 200 200" xml:space="preserve">
<g>
	<path fill="none" d="M-23.435-43.5c78.283,0,156.568,0,234.849,0c0,103.334,0,206.669,0,310c-78.283,0-156.567,0-234.849,0
		C-23.435,163.169-23.435,59.835-23.435-43.5z M33.05,85.462c0,20.769-0.119,40.933,0.032,61.097
		c0.156,20.808,6.292,29.412,26.535,35.27c19.792,5.729,39.72,4.225,60.105,1.535c19.107-2.519,29.989-11.038,32.196-29.801
		c4.233-0.226,7.459,0.18,10.343-0.633c28.163-7.932,35.492-31.373,13.469-50.164c-11.885-10.143-24.03-24.55-44.463-20.578
		c-8.607,1.669-18.235-1.903-29.912-3.421c8.439-8.058,14.379-15.265,10.553-25.608c-3.926-10.609-16.681-10.945-22.281-18.792
		c0.629-4.959,4.832-6.372,7.291-9.283c2.35-2.775,2.214-5.9,0.274-8.565c-1.9-2.605-4.918-3.848-8.241-3.421
		c-10.173,1.308-14.048,9.293-17.013,17.366c-2.426,6.609,0.781,12.017,6.251,16.242c5.409,4.179,13.504,4.641,17.298,13.733
		c-5.789,4.252-12.808,9.063-10.131,19.573C67.292,78.948,51.898,80.499,33.05,85.462z"/>
	<path fill="#FFFFFF" d="M33.05,85.462c18.847-4.964,34.242-6.513,52.305-5.45c-2.677-10.509,4.344-15.319,10.133-19.573
		c-3.793-9.091-11.89-9.553-17.301-13.733c-5.47-4.224-8.678-9.632-6.251-16.242c2.965-8.073,6.839-16.059,17.013-17.366
		c3.325-0.426,6.342,0.817,8.241,3.421c1.939,2.665,2.076,5.79-0.272,8.565c-2.461,2.913-6.667,4.326-7.293,9.283
		c5.6,7.848,18.355,8.184,22.281,18.792c3.828,10.344-2.112,17.55-10.553,25.609c11.679,1.518,21.304,5.092,29.912,3.421
		c20.435-3.972,32.58,10.435,44.465,20.579c22.021,18.791,14.692,42.23-13.469,50.162c-2.884,0.812-6.105,0.408-10.347,0.635
		c-2.206,18.762-13.089,27.283-32.194,29.802c-20.39,2.687-40.317,4.192-60.108-1.536c-20.244-5.855-26.379-14.463-26.535-35.27
		C32.931,126.395,33.05,106.23,33.05,85.462z M47.265,97.301c0,17.09-0.722,33.357,0.224,49.518
		c0.789,13.472,6.222,19.734,17.593,21.154c17.859,2.229,35.902,2.444,53.792,0.192c10.253-1.294,17.251-6.798,17.688-18.271
		c0.668-17.737,1.666-35.476-1.926-52.595C105.443,97.301,77.501,97.301,47.265,97.301z M152.492,106.327
		c0,12.081,0,22.315,0,32.548c6.375-5.968,21.055,1.025,20.923-13.113C173.303,113.506,163.742,110.29,152.492,106.327z"/>
	<path fill="none" d="M47.265,97.301c30.236,0,58.178,0,87.372,0c3.592,17.117,2.594,34.855,1.926,52.594
		c-0.436,11.473-7.435,16.977-17.688,18.27c-17.893,2.253-35.935,2.038-53.793-0.189c-11.371-1.418-16.804-7.685-17.593-21.156
		C46.543,130.657,47.265,114.391,47.265,97.301z"/>
	<path fill="none" d="M152.492,106.327c11.25,3.963,20.811,7.179,20.923,19.435c0.132,14.146-14.545,7.148-20.923,13.113
		C152.492,128.643,152.492,118.408,152.492,106.327z"/>
</g>
</svg>
