<?xml version="1.0" encoding="utf-8"?>
<!-- Generator: Adobe Illustrator 16.0.0, SVG Export Plug-In . SVG Version: 6.00 Build 0)  -->
<!DOCTYPE svg PUBLIC "-//W3C//DTD SVG 1.1//EN" "http://www.w3.org/Graphics/SVG/1.1/DTD/svg11.dtd">
<svg version="1.1" id="Layer_1" xmlns="http://www.w3.org/2000/svg" xmlns:xlink="http://www.w3.org/1999/xlink" x="0px" y="0px"
	 width="200px" height="200px" viewBox="0 0 200 200" enable-background="new 0 0 200 200" xml:space="preserve">
<g>
	<path fill="none" d="M13.239-15.954c59.102,0,118.207,0,177.307,0c0,78.015,0,156.031,0,234.045c-59.103,0-118.206,0-177.307,0
		C13.239,140.077,13.239,62.062,13.239-15.954z M55.884,81.41c0,15.681-0.09,30.904,0.024,46.127
		c0.118,15.708,4.75,22.205,20.034,26.627c14.943,4.326,29.988,3.189,45.378,1.16c14.427-1.9,22.643-8.335,24.309-22.499
		c3.198-0.17,5.633,0.135,7.809-0.478c21.264-5.988,26.797-23.686,10.168-37.874c-8.973-7.657-18.143-18.534-33.568-15.535
		c-6.499,1.26-13.768-1.437-22.583-2.583c6.372-6.084,10.856-11.525,7.967-19.334c-2.964-8.01-12.594-8.263-16.822-14.188
		c0.475-3.744,3.648-4.811,5.504-7.009c1.774-2.095,1.672-4.454,0.207-6.466c-1.435-1.967-3.713-2.905-6.222-2.583
		c-7.681,0.987-10.606,7.016-12.845,13.111c-1.832,4.99,0.59,9.073,4.72,12.263c4.084,3.155,10.195,3.504,13.06,10.368
		c-4.371,3.21-9.669,6.843-7.648,14.777C81.736,76.492,70.114,77.663,55.884,81.41z"/>
	<path fill="#999999" d="M55.884,81.41c14.229-3.747,25.852-4.917,39.489-4.114c-2.021-7.934,3.28-11.566,7.65-14.777
		c-2.864-6.864-8.977-7.213-13.062-10.368c-4.13-3.189-6.552-7.272-4.72-12.263c2.239-6.095,5.164-12.124,12.845-13.111
		c2.511-0.322,4.788,0.617,6.222,2.583c1.465,2.012,1.567,4.371-0.205,6.466c-1.858,2.199-5.034,3.266-5.506,7.009
		c4.228,5.925,13.858,6.178,16.822,14.188c2.892,7.809-1.595,13.25-7.967,19.334c8.817,1.146,16.084,3.844,22.583,2.583
		c15.428-2.999,24.598,7.878,33.57,15.535c16.627,14.188,11.094,31.884-10.168,37.873c-2.176,0.611-4.61,0.309-7.811,0.479
		c-1.666,14.164-9.882,20.599-24.309,22.499c-15.393,2.028-30.437,3.166-45.378-1.16c-15.284-4.422-19.916-10.919-20.034-26.627
		C55.794,112.313,55.884,97.09,55.884,81.41z M66.616,90.348c0,12.903-0.545,25.184,0.169,37.384
		c0.596,10.17,4.698,14.899,13.283,15.972c13.483,1.683,27.106,1.846,40.612,0.146c7.74-0.978,13.024-5.133,13.354-13.793
		c0.505-13.393,1.259-26.783-1.453-39.708C110.539,90.348,89.444,90.348,66.616,90.348z M146.061,97.163c0,9.121,0,16.848,0,24.573
		c4.813-4.506,15.896,0.774,15.797-9.9C161.771,102.583,154.555,100.155,146.061,97.163z"/>
	<path fill="none" d="M66.616,90.348c22.828,0,43.923,0,65.964,0c2.712,12.923,1.958,26.315,1.453,39.707
		c-0.328,8.661-5.612,12.816-13.354,13.793c-13.507,1.701-27.13,1.538-40.613-0.145c-8.585-1.07-12.687-5.801-13.283-15.973
		C66.071,115.531,66.616,103.251,66.616,90.348z"/>
	<path fill="none" d="M146.061,97.163c8.494,2.992,15.711,5.42,15.797,14.673c0.1,10.678-10.981,5.396-15.797,9.9
		C146.061,114.011,146.061,106.284,146.061,97.163z"/>
</g>
</svg>
