<?xml version="1.0" encoding="utf-8"?>
<!-- Generator: Adobe Illustrator 16.0.0, SVG Export Plug-In . SVG Version: 6.00 Build 0)  -->
<!DOCTYPE svg PUBLIC "-//W3C//DTD SVG 1.1//EN" "http://www.w3.org/Graphics/SVG/1.1/DTD/svg11.dtd">
<svg version="1.1" id="Layer_1" xmlns="http://www.w3.org/2000/svg" xmlns:xlink="http://www.w3.org/1999/xlink" x="0px" y="0px"
	 width="200px" height="200px" viewBox="0 0 200 200" enable-background="new 0 0 200 200" xml:space="preserve">
<g>
	<path fill="none" d="M10-15.667V209.3h173.051V-15.667H10z M99.696,80.019c-1.528,5.985-6.357,8.787-10.375,14.771v58.012
		c-7.36-0.229-6.777-4.948-6.814-8.702c-0.163-16.619-0.071-33.242-0.071-49.29c-1.439-5.921-7.904-7.518-9.102-13.05
		c-1.032-7.264-0.817-14.547,1.534-22.635c2.466-0.406,4.905-1.526,7.244-1.848c0.122-0.529,0.206-1.059,0.342-1.586
		c0.558-2.16,3.897-1.242,3.337,0.919c-0.088,0.337-0.138,0.674-0.216,1.012c1.315,0.53,2.585,1.599,3.787,3.572
		c0.248-0.001,0.494-0.003,0.743-0.006c0.125-0.774,0.213-1.552,0.426-2.325c0.592-2.149,3.929-1.235,3.337,0.92
		c-0.099,0.36-0.118,0.726-0.195,1.087c1.326-0.699,2.761-1.068,5.032,0.557C101.113,67.168,99.021,74.049,99.696,80.019z
		 M134.598,106.771c-5.981,4.144-11.631,0.903-16.812,3.961c-3.171,12.517,2.146,26.414-3.05,40.17
		c-8.864-11.021-7.801-8.371-7.529-48.028c0.109-16.375-2.902-33.207,5.16-50.75C126.555,68.49,135.941,85.167,134.598,106.771z"/>
	<path fill="#CC0000" d="M134.598,106.771c-5.981,4.144-11.631,0.903-16.812,3.961c-3.171,12.517,2.146,26.414-3.05,40.17
		c-8.864-11.021-7.801-8.371-7.529-48.028c0.109-16.375-2.902-33.207,5.16-50.75C126.555,68.49,135.941,85.167,134.598,106.771z
		 M117.92,75.659c0.63,8.773-3.794,18.12,4.042,28.577C126.688,92.132,122.139,83.817,117.92,75.659z"/>
	<path fill="#CC0000" d="M98.706,61.426c-2.271-1.625-3.706-1.255-5.032-0.557c-0.355,1.675-0.514,3.366-0.532,5.065v1.932
		c0.057,2.056,0.189,4.114,0.212,6.166c0.003,0.331-0.085,0.597-0.212,0.83v4.721c-1.129-1.335-1.855-2.712-2.365-4.109
		c-0.494-0.255-0.876-0.718-0.884-1.441c-0.016-1.269-0.069-2.541-0.119-3.806c-0.062-1.083-0.078-2.169-0.086-3.254
		c-0.002-0.25-0.006-0.502-0.006-0.752c-0.015-1.69-0.053-3.375-0.32-5.026c-1.202-1.973-2.472-3.042-3.787-3.572
		c-1.416,5.894-1.886,11.805-1.163,17.853c0.266,2.214-3.199,2.187-3.461,0c-0.736-6.148-0.225-12.205,1.162-18.198
		c-2.339,0.322-4.777,1.442-7.244,1.848c-2.352,8.088-2.566,15.372-1.534,22.635c1.198,5.532,7.663,7.128,9.102,13.05
		c0,16.048-0.092,32.669,0.071,49.289c0.037,3.756-0.545,8.475,6.814,8.703V94.79c4.017-5.983,8.846-8.786,10.375-14.771
		C99.021,74.049,101.113,67.168,98.706,61.426z"/>
	<path fill="#FDFBFB" d="M117.92,75.659c4.219,8.158,8.768,16.474,4.042,28.577C114.126,93.778,118.55,84.432,117.92,75.659z"/>
</g>
</svg>
