<?xml version="1.0" encoding="utf-8"?>
<!-- Generator: Adobe Illustrator 16.0.0, SVG Export Plug-In . SVG Version: 6.00 Build 0)  -->
<!DOCTYPE svg PUBLIC "-//W3C//DTD SVG 1.1//EN" "http://www.w3.org/Graphics/SVG/1.1/DTD/svg11.dtd">
<svg version="1.1" id="Layer_1" xmlns="http://www.w3.org/2000/svg" xmlns:xlink="http://www.w3.org/1999/xlink" x="0px" y="0px"
	 width="200px" height="200px" viewBox="0 0 200 200" enable-background="new 0 0 200 200" xml:space="preserve">
<g>
	<path fill="none" d="M-61.5-95.5v378h310v-378H-61.5z M99.18,65.276c-2.737,10.056-11.388,14.765-18.586,24.818v97.475
		c-13.185-0.385-12.139-8.314-12.206-14.621c-0.292-27.926-0.128-55.855-0.128-82.819c-2.578-9.949-14.159-12.633-16.305-21.928
		c-1.848-12.205-1.463-24.442,2.749-38.032c4.417-0.683,8.786-2.564,12.976-3.105c0.219-0.889,0.37-1.78,0.613-2.665
		c1-3.629,6.98-2.086,5.978,1.544c-0.158,0.566-0.248,1.134-0.387,1.702c2.355,0.89,4.63,2.687,6.782,6.001
		c0.445-0.002,0.886-0.005,1.332-0.01c0.224-1.301,0.382-2.608,0.763-3.908c1.062-3.61,7.038-2.075,5.978,1.546
		c-0.177,0.605-0.211,1.22-0.349,1.827c2.375-1.174,4.945-1.795,9.014,0.936C101.719,43.683,97.97,55.245,99.18,65.276z
		 M161.702,110.228c-10.715,6.961-20.835,1.518-30.116,6.654c-5.68,21.031,3.844,44.383-5.463,67.495
		c-15.879-18.519-13.975-14.064-13.487-80.699c0.195-27.514-5.2-55.795,9.243-85.272C147.294,45.905,164.109,73.926,161.702,110.228
		z"/>
	<path fill="#999999" d="M161.702,110.228c-10.715,6.961-20.835,1.518-30.116,6.654c-5.68,21.031,3.844,44.383-5.463,67.495
		c-15.879-18.519-13.975-14.064-13.487-80.699c0.195-27.514-5.2-55.795,9.243-85.272C147.294,45.905,164.109,73.926,161.702,110.228
		z M131.825,57.951c1.129,14.741-6.796,30.446,7.241,48.017C147.531,85.629,139.383,71.658,131.825,57.951z"/>
	<path fill="#999999" d="M97.406,34.035c-4.068-2.731-6.64-2.108-9.015-0.935c-0.637,2.813-0.92,5.655-0.953,8.51v3.247
		c0.103,3.454,0.338,6.912,0.38,10.36c0.005,0.556-0.152,1.003-0.38,1.394v7.933c-2.022-2.244-3.323-4.557-4.237-6.904
		c-0.884-0.429-1.569-1.207-1.583-2.421c-0.029-2.133-0.123-4.27-0.214-6.396c-0.111-1.82-0.139-3.644-0.153-5.467
		c-0.002-0.42-0.011-0.843-0.011-1.264c-0.027-2.839-0.095-5.671-0.574-8.446c-2.152-3.314-4.427-5.111-6.782-6.001
		c-2.537,9.903-3.379,19.836-2.083,29.997c0.477,3.72-5.732,3.675-6.201,0c-1.319-10.33-0.402-20.507,2.081-30.577
		c-4.189,0.542-8.557,2.423-12.976,3.105C50.492,43.76,50.109,56,51.957,68.202c2.146,9.296,13.728,11.978,16.305,21.928
		c0,26.965-0.164,54.892,0.127,82.818c0.066,6.31-0.977,14.238,12.206,14.623V90.095c7.197-10.052,15.848-14.763,18.585-24.818
		C97.97,55.245,101.719,43.683,97.406,34.035z"/>
	<path fill="#FDFBFB" d="M131.825,57.951c7.558,13.707,15.706,27.68,7.241,48.017C125.029,88.394,132.954,72.691,131.825,57.951z"/>
</g>
</svg>
