<?xml version="1.0" encoding="utf-8"?>
<!-- Generator: Adobe Illustrator 16.0.0, SVG Export Plug-In . SVG Version: 6.00 Build 0)  -->
<!DOCTYPE svg PUBLIC "-//W3C//DTD SVG 1.1//EN" "http://www.w3.org/Graphics/SVG/1.1/DTD/svg11.dtd">
<svg version="1.1" id="Layer_1" xmlns="http://www.w3.org/2000/svg" xmlns:xlink="http://www.w3.org/1999/xlink" x="0px" y="0px"
	 width="200px" height="200px" viewBox="0 0 200 200" enable-background="new 0 0 200 200" xml:space="preserve">
<g>
	<path fill="none" d="M-42-89.149c93.5,0,187.003,0,280.5,0c0,121.551,0,243.1,0,364.649c-93.497,0-187.001,0-280.5,0
		C-42,153.95-42,32.401-42-89.149z M126.271,100.611c24.342,15.908,38.172,12.822,53.566-10.768
		c13.914-21.332,9.813-42.177-10.871-55.315c-21.925-13.92-40.844-6.849-61.176,23.01c-26.555,4.698-55.229-5.698-82.458,9.1
		c8.8,18.242,23.182,28.801,36.462,39.905c18.266,15.286,26.629,32.632,16.934,55.813c-9.333,3.119-24.4-3.549-24.451,16.355
		c24.02,2.217,47.551,2.752,71.871-0.376c-0.978-20.626-18.666-11.515-27.172-16.765C92.348,134.33,104.285,116.143,126.271,100.611
		z"/>
	<path fill="#FFFFFF" d="M126.271,100.611c-21.982,15.529-33.922,33.721-27.296,60.965c8.509,5.247,26.197-3.862,27.169,16.763
		c-24.313,3.132-47.848,2.593-71.868,0.376c0.052-19.904,15.117-13.232,24.45-16.355c9.697-23.18,1.332-40.528-16.935-55.813
		C48.514,95.442,34.13,84.883,25.333,66.641c27.229-14.797,55.903-4.401,82.458-9.1c20.333-29.858,39.251-36.93,61.176-23.009
		c20.686,13.137,24.783,33.982,10.872,55.315C164.441,113.434,150.613,116.52,126.271,100.611z M57.634,80.438
		c14.014,8.777,18.103,26.466,33.302,34.903c9.496-11.051,18.832-21.896,30.027-34.903C97.779,80.438,77.702,80.438,57.634,80.438z
		 M137.184,94.074c17.449-1.283,30.139-6.121,32.608-22.572c1.606-10.678-3.253-21.026-13.569-24.943
		c-11.568-4.4-22.832-2.438-30.064,11.138c9.648,4.896,22.563-4.832,27.3,8.984C151.926,77.326,139.197,81.001,137.184,94.074z"/>
	<path fill="none" d="M57.634,80.438c20.068,0,40.146,0,63.329,0c-11.195,13.007-20.531,23.853-30.027,34.903
		C75.737,106.904,71.647,89.215,57.634,80.438z"/>
	<path fill="none" d="M137.184,94.074c2.012-13.073,14.739-16.749,16.282-27.394c-4.745-13.816-17.659-4.088-27.309-8.985
		c7.231-13.574,18.495-15.536,30.065-11.138c10.315,3.916,15.176,14.266,13.568,24.943C167.32,87.954,154.633,92.792,137.184,94.074
		z"/>
</g>
</svg>
