<?xml version="1.0" encoding="utf-8"?>
<!-- Generator: Adobe Illustrator 16.0.0, SVG Export Plug-In . SVG Version: 6.00 Build 0)  -->
<!DOCTYPE svg PUBLIC "-//W3C//DTD SVG 1.1//EN" "http://www.w3.org/Graphics/SVG/1.1/DTD/svg11.dtd">
<svg version="1.1" id="Layer_1" xmlns="http://www.w3.org/2000/svg" xmlns:xlink="http://www.w3.org/1999/xlink" x="0px" y="0px"
	 width="200px" height="200px" viewBox="0 0 200 200" enable-background="new 0 0 200 200" xml:space="preserve">
<g>
	<path fill="none" d="M10.615-28.199c61.461,0,122.925,0,184.385,0c0,79.9,0,159.799,0,239.699c-61.46,0-122.924,0-184.385,0
		C10.615,131.6,10.615,51.701,10.615-28.199z M121.227,96.538c16.002,10.458,25.094,8.429,35.213-7.077
		c9.146-14.022,6.451-27.725-7.146-36.361c-14.412-9.151-26.848-4.502-40.214,15.125c-17.456,3.089-36.304-3.745-54.203,5.982
		c5.784,11.991,15.238,18.932,23.967,26.231c12.007,10.048,17.505,21.451,11.132,36.689c-6.135,2.051-16.039-2.333-16.072,10.751
		c15.789,1.457,31.257,1.81,47.242-0.247c-0.642-13.558-12.269-7.568-17.861-11.02C98.928,118.703,106.775,106.747,121.227,96.538z"
		/>
	<path fill="#FFFFFF" d="M121.227,96.538c-14.449,10.209-22.298,22.166-17.943,40.075c5.594,3.449,17.221-2.539,17.861,11.019
		c-15.983,2.058-31.453,1.704-47.242,0.247c0.034-13.084,9.937-8.699,16.072-10.751c6.374-15.237,0.875-26.642-11.132-36.689
		c-8.729-7.299-18.184-14.24-23.967-26.231c17.899-9.727,36.747-2.893,54.203-5.982c13.366-19.627,25.802-24.276,40.214-15.125
		c13.598,8.636,16.291,22.338,7.146,36.361C146.318,104.967,137.229,106.995,121.227,96.538z M76.109,83.277
		c9.212,5.77,11.9,17.397,21.891,22.944c6.242-7.264,12.378-14.394,19.738-22.944C102.498,83.277,89.301,83.277,76.109,83.277z
		 M128.4,92.241c11.471-0.843,19.811-4.023,21.436-14.837c1.055-7.019-2.139-13.822-8.92-16.396
		c-7.605-2.893-15.01-1.603-19.764,7.321c6.342,3.219,14.832-3.176,17.945,5.906C138.091,81.232,129.725,83.648,128.4,92.241z"/>
	<path fill="none" d="M76.109,83.277c13.192,0,26.389,0,41.629,0c-7.36,8.55-13.496,15.68-19.738,22.944
		C88.009,100.675,85.321,89.047,76.109,83.277z"/>
	<path fill="none" d="M128.4,92.241c1.322-8.593,9.689-11.009,10.703-18.007c-3.119-9.082-11.609-2.687-17.951-5.906
		c4.754-8.923,12.158-10.213,19.764-7.321c6.781,2.574,9.975,9.377,8.92,16.396C148.211,88.218,139.871,91.398,128.4,92.241z"/>
</g>
</svg>
