<?xml version="1.0" encoding="utf-8"?>
<!-- Generator: Adobe Illustrator 16.0.0, SVG Export Plug-In . SVG Version: 6.00 Build 0)  -->
<!DOCTYPE svg PUBLIC "-//W3C//DTD SVG 1.1//EN" "http://www.w3.org/Graphics/SVG/1.1/DTD/svg11.dtd">
<svg version="1.1" id="Layer_1" xmlns="http://www.w3.org/2000/svg" xmlns:xlink="http://www.w3.org/1999/xlink" x="0px" y="0px"
	 width="200px" height="200px" viewBox="0 0 200 200" enable-background="new 0 0 200 200" xml:space="preserve">
<g>
	<path fill-rule="evenodd" clip-rule="evenodd" fill="none" d="M201,201c-66.667,0-133.333,0-200,0C1,134.333,1,67.667,1,1
		c66.667,0,133.333,0,200,0C201,67.667,201,134.333,201,201z M84,127.505c2.536,1.928,4.276,2.055,6.492,0.507
		c1.031-0.72,2.118-1.363,3.111-2.13c5.111-3.948,10.599-7.419,16.083-10.719c8.034-4.834,15.566-10.426,23.706-15.068
		c1.759-1.003,3.645-1.899,5.14-3.221c2.162-1.91,4.663-3.264,7.021-4.84c2.186-1.461,4.693-2.453,6.824-3.98
		c3.83-2.745,7.653-5.479,11.805-7.724c0.538-0.291,1.307-0.326,1.67-0.741c1.141-1.305,2.306-2.729,2.107-4.587
		c-0.156-1.467-1.565-1.733-2.698-2.324c-1.239-0.646-2.426-1.433-3.556-2.351c-2.427-1.973-5.031-3.807-7.786-5.279
		c-6.083-3.254-11.371-7.729-17.402-11.047c-2.737-1.506-4.984-3.787-7.917-5.015c-2.911-1.218-4.974-3.698-7.839-5.161
		c-2.86-1.46-5.825-3.068-8.369-5.088c-1.63-1.294-3.196-2.672-4.989-3.723c-5.731-3.357-11.618-6.49-16.255-11.395
		c-0.905-0.957-1.893-1.691-3.132-2.111c-0.242-0.082-0.461-0.23-0.686-0.346C86.5,22.24,84.868,22.076,84,23.662
		c0,4.452-0.038,9.258,0.026,14.062c0.017,1.243-0.109,2.488-1.268,2.933c-1.298,0.498-2.601,0.599-4.091-0.343
		c-2.04-1.289-3.623-3.099-5.682-4.325c-6.52-3.886-13.36-7.338-18.54-13.101c-0.717-0.798-1.771-0.679-2.453-1.377
		c-0.167-0.172-0.45-0.231-0.606-0.307c-0.975,0.937-2.489,0.944-3.294,2.262c-0.024,0.331-0.087,0.808-0.087,1.284
		C48,58.061,48,91.372,48,124.683c0,0.833-0.147,1.702,0.049,2.486c0.143,0.565,0.643,1.267,1.157,1.472
		c1.524,0.606,3.24,0.815,4.661-0.072c2.405-1.504,4.631-3.292,6.976-4.897c2.977-2.038,6.007-3.998,8.997-6.018
		c3.662-2.473,7.942-4.074,10.636-7.688c3.219,0.61,3.489,0.795,3.51,3.072C84.031,117.863,84,122.691,84,127.505z M28.174,159.966
		c0,4.331,0,8.112,0,11.935c0.958,0,1.742,0,2.875,0c0-1.994,0-3.902,0-6.021c2.144,1.159,3.007,3.163,3.677,4.638
		c1.004,2.206,1.99,1.328,3.114,1.203c0-3.984,0-7.767,0-11.631c-0.61,0-1.061,0-1.86,0c0,2.305,0,4.561,0,7.098
		C33.191,164.643,33.061,159.909,28.174,159.966z M100.169,160c0,4.083,0,7.961,0,11.911c0.949,0,1.729,0,2.45,0
		c1.021-1.559-0.375-3.574,1.159-5.261c1.62,1.113,2.739,2.181,3.452,3.962c0.648,1.624,1.477,1.568,4.128,0.394
		c-1.828-1.723-3.452-3.514-1.416-6.081c0.402-0.507,0.051-1.606,0.059-2.433c0.016-1.59-0.958-2.387-2.354-2.458
		C105.2,159.91,102.743,160,100.169,160z M75.448,160.042c-4.766,5.089-4.649,7.476,0.388,11.922
		c3.001,0.22,5.884,0.144,8.048-2.349c0-2.451,0-4.901,0-7.216C81.552,159.844,78.65,159.859,75.448,160.042z M92.298,170.252
		c-1.483-0.784-2.351-1.376-2.316-2.765C90.045,165.045,90,162.6,90,160.086c-1.111,0-1.892,0-2.832,0c0,3.309,0,6.529,0,9.582
		c0.871,0.871,1.574,1.574,2.304,2.305c1.621,0,3.27,0,4.586,0c1.164-0.956,2.16-1.774,2.746-2.256c0-3.503,0.004-6.458-0.016-9.412
		c0-0.103-0.231-0.203-0.365-0.313c-0.754,0.197-1.649-0.388-2.16,0.2C93.235,163.54,95.451,167.26,92.298,170.252z
		 M140.955,162.029c0.08-1.188,0.187-1.988-0.748-2.009c-2.638-0.059-5.278-0.021-8.002-0.021c0,4.11,0,8.013,0,12.025
		c3.08-0.133,5.978,0.187,8.768-0.204c0.05-0.985,0.036-1.472-0.721-1.967c-1.509,0-3.297,0-5.163,0c0-0.961,0-1.745,0-2.883
		c1.977,0,3.903,0,5.896,0c-0.056-0.811-0.087-1.262-0.118-1.719c-1.941-0.731-3.998,0.282-5.813-0.619
		c0.038-0.863-0.319-1.691,0.368-2.604C137.076,162.029,138.861,162.029,140.955,162.029z M152.479,160c-1.658,0-3.316,0-4.946,0
		c-1.191,1.179-2.369,2.343-3.533,3.494c0,1.685,0,3.343,0,4.973c1.179,1.191,2.343,2.369,3.494,3.533c1.685,0,3.343,0,5.001,0
		C157.104,168.189,157.225,163.897,152.479,160z M42.102,172c1.883,0,3.695,0.146,5.473-0.039c1.915-0.199,3.461-1.236,4.073-3.146
		c0.597-1.865,0.611-3.807-0.033-5.695c-0.666-1.953-2.193-2.909-4.119-3.086c-1.777-0.162-3.58-0.034-5.394-0.034
		C42.102,164.138,42.102,167.921,42.102,172z M184.975,164.6c0.205-0.875-0.327-1.757,0.52-2.6c1.669,0,3.483,0.031,5.297-0.009
		c1.605-0.036,1.406-0.901,0.855-1.859c-2.846,0-5.632,0-8.411,0c0,4.041,0,7.944,0,11.707c3.022,0,5.811,0,8.676,0
		c0-0.612,0-1.063,0-1.867c-2.316,0-4.568,0-6.762,0c-0.146-1.145-0.354-1.941,0.097-2.761c1.827-0.689,3.884,0.324,5.974-0.714
		C189.784,163.678,187.1,165.804,184.975,164.6z M18.909,165c-1.613,0-3.204,0-4.82,0c0-1.118,0-1.897,0-3.012
		c1.966,0,3.883,0,5.816,0c0-0.783,0-1.231,0-1.816c-2.981,0-5.865,0-8.666,0c0,4.057,0,7.938,0,11.843
		c1.016-0.152,1.862,0.289,2.683-0.416c0.388-1.434-0.395-3.139,0.588-4.753c1.431,0,2.875,0,4.399,0
		C18.909,166.234,18.909,165.786,18.909,165z M128.854,161.354c-2.747-1.941-5.771-1.298-8.854-1.306
		c0,4.017-0.011,7.671,0.028,11.323c0.002,0.212,0.414,0.42,0.636,0.629c0.317-0.038,0.635-0.076,1.036-0.125
		c0.883-1.449-0.287-3.229,0.73-4.873c1.341,0,2.793,0,3.809,0C128.595,165.478,129.616,163.771,128.854,161.354z M160.632,171.896
		c0.996-1.5-0.26-3.292,0.706-4.746c1.643-0.635,3.51,0.523,5.124-1.009c1.53-1.453,1.833-2.952,1.36-4.82
		c-2.768-1.832-5.767-1.355-8.676-1.22c0,4.128,0,7.913,0,11.795C159.745,171.896,160.196,171.896,160.632,171.896z M67.049,171.544
		c-1.23-4.146,1.797-7.443,3.183-11.575c-3.001,0.203-3.766,2.123-4.631,3.93c-1.499-0.941-2.463-2.318-3.188-3.907
		c-0.755,0.193-1.65-0.385-2.454,0.554c0.227,2.07,1.734,3.463,3.011,5.047c1.47,1.824,0.875,4.242,1.132,6.341
		C65.216,171.93,66.029,172.238,67.049,171.544z M174,169.976c0-2.764,0.016-5.374-0.006-7.985c-0.015-1.845-0.037-1.844-2.82-1.794
		c0,3.883,0,7.768,0,11.804c2.634,0,5.098,0.001,7.562,0c1.571-0.001,1.492-0.809,0.854-2.024
		C177.866,169.976,176.086,169.976,174,169.976z M23.169,160.239c0,3.807,0,7.691,0,11.43c0.59,0.451,1.041,0.374,1.662,0.092
		c0-3.807,0-7.691,0-11.43C24.241,159.88,23.791,159.957,23.169,160.239z"/>
	<path fill-rule="evenodd" clip-rule="evenodd" fill="#CC0000" d="M84,127.505c0-4.813,0.031-9.642-0.014-14.468
		c-0.021-2.277-0.291-2.462-3.51-3.072c-2.694,3.614-6.974,5.216-10.636,7.688c-2.99,2.02-6.02,3.979-8.997,6.018
		c-2.345,1.605-4.571,3.394-6.976,4.897c-1.421,0.888-3.137,0.679-4.661,0.072c-0.515-0.205-1.015-0.906-1.157-1.472
		c-0.197-0.784-0.049-1.653-0.049-2.486c0-33.311,0-66.622,0.004-99.933c0-0.477,0.063-0.953,0.087-1.284
		c0.805-1.317,2.319-1.325,3.294-2.262c0.156,0.075,0.439,0.135,0.606,0.307c0.681,0.698,1.735,0.579,2.453,1.377
		c5.18,5.763,12.02,9.215,18.54,13.101c2.059,1.227,3.642,3.036,5.682,4.325c1.491,0.941,2.793,0.841,4.091,0.343
		c1.158-0.444,1.284-1.689,1.268-2.933C83.962,32.92,84,28.114,84,23.662c0.868-1.586,2.5-1.422,3.33-2.499
		c0.224,0.115,0.443,0.264,0.686,0.346c1.239,0.42,2.227,1.154,3.132,2.111c4.637,4.904,10.523,8.037,16.255,11.395
		c1.793,1.051,3.359,2.429,4.989,3.723c2.544,2.02,5.509,3.628,8.369,5.088c2.865,1.463,4.928,3.943,7.839,5.161
		c2.933,1.228,5.18,3.509,7.917,5.015c6.031,3.318,11.319,7.793,17.402,11.047c2.755,1.473,5.359,3.307,7.786,5.279
		c1.13,0.918,2.316,1.705,3.556,2.351c1.133,0.591,2.542,0.857,2.698,2.324c0.198,1.858-0.967,3.282-2.107,4.587
		c-0.363,0.415-1.132,0.45-1.67,0.741c-4.151,2.244-7.975,4.979-11.805,7.724c-2.131,1.527-4.639,2.52-6.824,3.98
		c-2.358,1.576-4.859,2.93-7.021,4.84c-1.495,1.321-3.381,2.218-5.14,3.221c-8.14,4.643-15.672,10.234-23.706,15.068
		c-5.483,3.3-10.972,6.771-16.083,10.719c-0.993,0.767-2.081,1.41-3.111,2.13C88.276,129.56,86.536,129.433,84,127.505z
		 M56.164,35.199c0,27.094,0,53.861,0,80.58c2.34,0.677,4.667,0.15,5.645-1.521c0.613-1.047,1.293-1.238,2.003-1.516
		c3.688-1.44,6.16-4.865,9.988-6.043c2.126-2.986,6.51-3.007,8.358-6.358c2.542-0.731,3.728-3.62,6.257-4.15
		c1.506-0.316,2.563-0.957,3.79-1.788c3.865-2.621,7.938-4.932,11.898-7.414c1.979-1.24,3.899-2.59,5.878-3.807
		c2.102-1.293,4.163-3.067,6.419-3.885c2.821-1.021,2.774-2.717,2.484-4.952c-0.527-0.608-1.529-0.79-2.077-0.895
		c-2.28-0.433-2.928-2.899-5.067-3.536c-1.788-0.532-3.174-2.039-4.691-3.204c-1.436-1.102-3.303-1.53-4.831-2.826
		c-2.354-1.994-5.309-3.262-7.838-5.076c-1.919-1.376-4.161-2.093-6.02-3.724c-1.835-1.611-4.621-2.105-6.14-4.354
		c-0.183-0.271-0.436-0.64-0.704-0.687c-2.917-0.502-4.656-3.117-7.324-4.043c-2.722-0.944-3.744-4.609-7.146-4.457
		c-2.207-2.35-5.598-3.115-7.634-5.665C58.518,34.762,57.474,34.905,56.164,35.199z M92.016,46.516
		c1.469,1.47,2.81,2.527,3.781,3.855c1.088,1.488,2.946,1.183,4.133,2.123c3.832,3.037,8.067,5.449,12.082,8.188
		c2.985,2.036,6.146,3.782,9.133,5.813c3.063,2.082,5.746,4.911,9.582,5.773c0.412,0.093,0.828,0.612,1.048,1.034
		c1.066,2.053-0.177,5.54-2.326,6.758c-1.622,0.918-3.339,1.724-4.804,2.852c-3.372,2.596-6.97,4.837-10.569,7.079
		c-3.039,1.894-6.265,3.621-9.056,5.749c-3.039,2.316-6.387,4.066-9.569,6.049c-1.5,0.934-2.553,1.871-2.96,3.296
		c-1.003,3.505-0.57,7.115-0.183,10.68c0.066,0.608,0.617,1.164,0.832,1.546c2.185-1.029,3.92-1.455,5.019-2.962
		c1.172-1.606,2.969-2.363,4.601-3.356c4.126-2.511,8.455-4.769,12.252-7.71c2.032-1.574,4.15-2.987,6.38-4.009
		c2.386-1.094,3.731-3.387,6.199-4.322c4.556-1.727,8.297-4.954,12.307-7.588c4.319-2.838,8.655-5.655,13.073-8.336
		c1.417-0.859,2.695-1.695,3.157-3.329c-4.193-4.16-9.673-6.131-14.134-9.64c-2.928-2.303-6.39-3.913-9.428-6.092
		c-1.433-1.027-3.25-1.299-4.483-2.445c-5.017-4.67-11.466-7.175-16.855-11.353c-3.13-2.426-6.599-4.719-10.195-6.605
		c-2.398-1.258-4.926-2.277-6.462-4.586c-1.244,0.19-2.441-0.396-3.89,0.73C92.599,38.98,91.877,42.742,92.016,46.516z"/>
	<path fill-rule="evenodd" clip-rule="evenodd" fill="#CC0000" d="M28.174,159.966c4.887-0.057,5.017,4.677,7.806,7.222
		c0-2.537,0-4.793,0-7.098c0.799,0,1.25,0,1.86,0c0,3.864,0,7.646,0,11.631c-1.125,0.125-2.11,1.003-3.114-1.203
		c-0.67-1.475-1.533-3.479-3.677-4.638c0,2.118,0,4.026,0,6.021c-1.133,0-1.916,0-2.875,0
		C28.174,168.078,28.174,164.297,28.174,159.966z"/>
	<path fill-rule="evenodd" clip-rule="evenodd" fill="#CC0000" d="M100.169,160c2.574,0,5.031-0.09,7.478,0.034
		c1.396,0.071,2.37,0.868,2.354,2.458c-0.008,0.826,0.344,1.926-0.059,2.433c-2.036,2.567-0.412,4.358,1.416,6.081
		c-2.651,1.175-3.479,1.23-4.128-0.394c-0.713-1.781-1.832-2.849-3.452-3.962c-1.534,1.687-0.138,3.702-1.159,5.261
		c-0.722,0-1.501,0-2.45,0C100.169,167.961,100.169,164.083,100.169,160z M107.917,162.167c-1.64,0-3.194,0-4.834,0
		c0,0.944,0,1.722,0,2.666c1.64,0,3.194,0,4.834,0C107.917,163.889,107.917,163.111,107.917,162.167z"/>
	<path fill-rule="evenodd" clip-rule="evenodd" fill="#CC0000" d="M75.448,160.042c3.202-0.183,6.104-0.198,8.436,2.357
		c0,2.314,0,4.765,0,7.216c-2.164,2.492-5.046,2.568-8.048,2.349C70.799,167.518,70.682,165.131,75.448,160.042z M75.083,168.628
		c4.384,1.835,4.385,1.835,6.221-0.431c0.968-1.195,0.971-3.192,0.005-4.389c-1.835-2.274-1.835-2.274-6.226-0.439
		C75.083,165.109,75.083,166.885,75.083,168.628z"/>
	<path fill-rule="evenodd" clip-rule="evenodd" fill="#CC0000" d="M92.298,170.252c3.152-2.992,0.937-6.712,1.966-10.061
		c0.511-0.588,1.405-0.003,2.16-0.2c0.134,0.11,0.365,0.211,0.365,0.313c0.02,2.954,0.016,5.909,0.016,9.412
		c-0.586,0.481-1.582,1.3-2.746,2.256c-1.316,0-2.965,0-4.586,0c-0.73-0.73-1.433-1.434-2.304-2.305c0-3.053,0-6.273,0-9.582
		c0.94,0,1.721,0,2.832,0c0,2.514,0.045,4.959-0.018,7.401C89.947,168.876,90.815,169.468,92.298,170.252z"/>
	<path fill-rule="evenodd" clip-rule="evenodd" fill="#CC0000" d="M140.955,162.029c-2.094,0-3.879,0-5.533,0
		c-0.688,0.913-0.33,1.741-0.368,2.604c1.815,0.901,3.872-0.112,5.813,0.619c0.031,0.457,0.063,0.908,0.118,1.719
		c-1.993,0-3.92,0-5.896,0c0,1.138,0,1.922,0,2.883c1.866,0,3.654,0,5.163,0c0.757,0.495,0.771,0.981,0.721,1.967
		c-2.79,0.391-5.688,0.071-8.768,0.204c0-4.013,0-7.915,0-12.025c2.724,0,5.364-0.038,8.002,0.021
		C141.142,160.041,141.035,160.842,140.955,162.029z"/>
	<path fill-rule="evenodd" clip-rule="evenodd" fill="#CC0000" d="M152.479,160c4.745,3.897,4.624,8.189,0.016,12
		c-1.658,0-3.316,0-5.001,0c-1.151-1.164-2.315-2.342-3.494-3.533c0-1.63,0-3.288,0-4.973c1.164-1.151,2.342-2.315,3.533-3.494
		C149.163,160,150.821,160,152.479,160z M154.018,166.092c-2.131-4.002-2.712-4.493-4.822-4.092
		c-1.689,0.321-3.26,2.378-3.195,4.188c0.053,1.499,1.658,3.485,3.078,3.813C152.382,170.763,152.914,168.065,154.018,166.092z"/>
	<path fill-rule="evenodd" clip-rule="evenodd" fill="#CC0000" d="M42.102,172c0-4.079,0-7.862,0-12
		c1.814,0,3.617-0.128,5.394,0.034c1.925,0.177,3.453,1.133,4.119,3.086c0.645,1.889,0.63,3.83,0.033,5.695
		c-0.611,1.909-2.158,2.946-4.073,3.146C45.796,172.146,43.984,172,42.102,172z M44.076,169.85c1.863,0,3.301,0,4.684,0
		c0.543-2.014,2.329-3.739,0.742-5.834c-1.384-1.827-3.081-2.786-5.426-1.663C44.076,164.811,44.076,167.231,44.076,169.85z"/>
	<path fill-rule="evenodd" clip-rule="evenodd" fill="#CC0000" d="M184.975,164.6c2.125,1.204,4.81-0.922,6.245,1.897
		c-2.09,1.038-4.146,0.024-5.974,0.714c-0.451,0.819-0.243,1.616-0.097,2.761c2.193,0,4.445,0,6.762,0c0,0.804,0,1.255,0,1.867
		c-2.865,0-5.653,0-8.676,0c0-3.763,0-7.666,0-11.707c2.779,0,5.565,0,8.411,0c0.551,0.958,0.75,1.823-0.855,1.859
		c-1.813,0.04-3.628,0.009-5.297,0.009C184.647,162.843,185.18,163.725,184.975,164.6z"/>
	<path fill-rule="evenodd" clip-rule="evenodd" fill="#CC0000" d="M18.909,165c0,0.786,0,1.234,0,1.846c-1.525,0-2.968,0-4.399,0
		c-0.983,1.614-0.2,3.319-0.588,4.753c-0.821,0.705-1.667,0.264-2.683,0.416c0-3.905,0-7.786,0-11.843c2.801,0,5.685,0,8.666,0
		c0,0.585,0,1.033,0,1.816c-1.933,0-3.85,0-5.816,0c0,1.114,0,1.894,0,3.012C15.705,165,17.296,165,18.909,165z"/>
	<path fill-rule="evenodd" clip-rule="evenodd" fill="#CC0000" d="M128.854,161.354c0.763,2.417-0.259,4.124-2.614,5.648
		c-1.016,0-2.468,0-3.809,0c-1.018,1.645,0.152,3.424-0.73,4.873c-0.401,0.049-0.719,0.087-1.036,0.126
		c-0.222-0.21-0.634-0.418-0.636-0.63c-0.039-3.652-0.028-7.307-0.028-11.323C123.082,160.056,126.106,159.412,128.854,161.354z
		 M125.91,162.328c-3.76-0.295-3.76-0.295-3.729,2.459c1.226,0.335,2.449,0.381,3.729-0.037
		C125.91,163.874,125.91,163.098,125.91,162.328z"/>
	<path fill-rule="evenodd" clip-rule="evenodd" fill="#CC0000" d="M160.632,171.896c-0.436,0-0.887,0-1.485,0
		c0-3.882,0-7.667,0-11.795c2.909-0.136,5.908-0.612,8.675,1.22c0.474,1.868,0.171,3.367-1.359,4.82
		c-1.614,1.532-3.481,0.374-5.124,1.009C160.372,168.604,161.628,170.396,160.632,171.896z M161,164.625
		c1.338,0.569,2.672,0.595,4.031-0.023c-0.209-0.893,0.316-1.764-0.602-2.677c-0.976,0.542-2.319-0.566-3.43,0.564
		C161,163.185,161,163.842,161,164.625z"/>
	<path fill-rule="evenodd" clip-rule="evenodd" fill="#CC0000" d="M67.049,171.544c-1.02,0.694-1.833,0.386-2.946,0.389
		c-0.257-2.099,0.338-4.517-1.132-6.341c-1.277-1.584-2.785-2.977-3.011-5.047c0.804-0.938,1.699-0.36,2.454-0.554
		c0.725,1.589,1.688,2.966,3.189,3.908c0.864-1.808,1.628-3.728,4.629-3.931C68.846,164.101,65.819,167.397,67.049,171.544z"/>
	<path fill-rule="evenodd" clip-rule="evenodd" fill="#CC0000" d="M174,169.976c2.086,0,3.866,0,5.589,0
		c0.639,1.216,0.718,2.023-0.854,2.024c-2.464,0.001-4.928,0-7.562,0c0-4.036,0-7.921,0-11.804c2.783-0.05,2.806-0.051,2.82,1.794
		C174.016,164.602,174,167.212,174,169.976z"/>
	<path fill-rule="evenodd" clip-rule="evenodd" fill="#CC0000" d="M23.169,160.239c0.622-0.282,1.072-0.359,1.662,0.092
		c0,3.738,0,7.623,0,11.43c-0.622,0.282-1.072,0.359-1.662-0.092C23.169,167.931,23.169,164.046,23.169,160.239z"/>
	<path fill-rule="evenodd" clip-rule="evenodd" fill="none" d="M56.164,35.199c1.311-0.294,2.354-0.438,3.247,0.681
		c2.036,2.55,5.428,3.315,7.634,5.665c3.403-0.152,4.424,3.513,7.146,4.457c2.668,0.926,4.407,3.541,7.324,4.043
		c0.268,0.047,0.521,0.416,0.704,0.687c1.519,2.248,4.304,2.742,6.14,4.354c1.858,1.631,4.1,2.348,6.02,3.724
		c2.529,1.814,5.484,3.082,7.838,5.076c1.528,1.296,3.396,1.725,4.831,2.826c1.518,1.165,2.903,2.672,4.691,3.204
		c2.14,0.637,2.787,3.104,5.067,3.536c0.548,0.104,1.55,0.286,2.077,0.895c0.29,2.235,0.337,3.931-2.484,4.952
		c-2.256,0.817-4.317,2.592-6.419,3.885c-1.979,1.217-3.898,2.566-5.878,3.807c-3.96,2.482-8.033,4.793-11.898,7.414
		c-1.227,0.831-2.284,1.472-3.79,1.788c-2.529,0.53-3.715,3.419-6.257,4.15c-1.848,3.352-6.231,3.372-8.358,6.358
		c-3.828,1.178-6.299,4.603-9.988,6.043c-0.71,0.277-1.391,0.469-2.003,1.516c-0.978,1.671-3.305,2.197-5.645,1.521
		C56.164,89.061,56.164,62.293,56.164,35.199z"/>
	<path fill-rule="evenodd" clip-rule="evenodd" fill="none" d="M92.016,46.516c-0.138-3.773,0.583-7.535-1.337-10.808
		c1.449-1.127,2.646-0.54,3.89-0.73c1.536,2.309,4.064,3.328,6.462,4.586c3.597,1.887,7.065,4.18,10.195,6.605
		c5.39,4.178,11.839,6.683,16.855,11.353c1.233,1.146,3.051,1.418,4.483,2.445c3.038,2.179,6.5,3.789,9.428,6.092
		c4.461,3.509,9.94,5.479,14.134,9.64c-0.462,1.634-1.74,2.47-3.157,3.329c-4.418,2.681-8.754,5.498-13.073,8.336
		c-4.01,2.634-7.751,5.861-12.307,7.588c-2.468,0.936-3.813,3.229-6.199,4.322c-2.229,1.021-4.348,2.435-6.38,4.009
		c-3.797,2.941-8.126,5.199-12.252,7.71c-1.632,0.993-3.429,1.75-4.601,3.356c-1.099,1.507-2.834,1.933-5.019,2.962
		c-0.215-0.382-0.766-0.938-0.832-1.546c-0.387-3.564-0.82-7.175,0.183-10.68c0.407-1.425,1.461-2.362,2.96-3.296
		c3.182-1.982,6.53-3.732,9.569-6.049c2.791-2.128,6.017-3.855,9.056-5.749c3.6-2.242,7.197-4.483,10.569-7.079
		c1.465-1.128,3.182-1.934,4.804-2.852c2.149-1.218,3.393-4.705,2.326-6.758c-0.22-0.422-0.636-0.941-1.048-1.034
		c-3.836-0.862-6.52-3.691-9.582-5.773c-2.986-2.03-6.147-3.776-9.133-5.813c-4.015-2.739-8.25-5.151-12.082-8.188
		c-1.187-0.94-3.044-0.635-4.133-2.123C94.825,49.043,93.485,47.985,92.016,46.516z"/>
	<path fill-rule="evenodd" clip-rule="evenodd" fill="none" d="M107.917,162.167c0,0.944,0,1.722,0,2.666c-1.64,0-3.194,0-4.834,0
		c0-0.944,0-1.722,0-2.666C104.723,162.167,106.277,162.167,107.917,162.167z"/>
	<path fill-rule="evenodd" clip-rule="evenodd" fill="none" d="M75.083,168.628c0-1.743,0-3.519,0-5.259
		c4.391-1.835,4.391-1.835,6.226,0.439c0.965,1.196,0.963,3.193-0.005,4.389C79.467,170.463,79.466,170.463,75.083,168.628z"/>
	<path fill-rule="evenodd" clip-rule="evenodd" fill="none" d="M154.018,166.092c-1.104,1.974-1.636,4.671-4.939,3.908
		c-1.42-0.327-3.025-2.313-3.078-3.813c-0.064-1.81,1.506-3.866,3.195-4.188C151.306,161.599,151.887,162.09,154.018,166.092z"/>
	<path fill-rule="evenodd" clip-rule="evenodd" fill="none" d="M44.076,169.85c0-2.618,0-5.039,0-7.497
		c2.345-1.123,4.042-0.164,5.426,1.663c1.587,2.095-0.199,3.82-0.742,5.834C47.377,169.85,45.939,169.85,44.076,169.85z"/>
	<path fill-rule="evenodd" clip-rule="evenodd" fill="none" d="M125.91,162.328c0,0.77,0,1.546,0,2.422
		c-1.28,0.418-2.504,0.372-3.729,0.037C122.15,162.033,122.15,162.033,125.91,162.328z"/>
	<path fill-rule="evenodd" clip-rule="evenodd" fill="none" d="M161,164.625c0-0.783,0-1.44,0-2.136
		c1.11-1.131,2.454-0.022,3.43-0.564c0.918,0.913,0.393,1.784,0.602,2.677C163.672,165.22,162.338,165.194,161,164.625z"/>
</g>
</svg>
