<?xml version="1.0" encoding="utf-8"?>
<!-- Generator: Adobe Illustrator 16.0.0, SVG Export Plug-In . SVG Version: 6.00 Build 0)  -->
<!DOCTYPE svg PUBLIC "-//W3C//DTD SVG 1.1//EN" "http://www.w3.org/Graphics/SVG/1.1/DTD/svg11.dtd">
<svg version="1.1" id="Layer_1" xmlns="http://www.w3.org/2000/svg" xmlns:xlink="http://www.w3.org/1999/xlink" x="0px" y="0px"
	 width="50px" height="50px" viewBox="0 0 50 50" enable-background="new 0 0 50 50" xml:space="preserve">
<g>
	<path fill="#FDFCFC" d="M50.991,1.004C40.689,1.007,30.393,1.008,20.095,1.009C20.601,1.342,21.076,1.922,21.688,2
		c0.631,0.08,0.639,1.081,0,1c-0.033-0.004-0.057-0.019-0.088-0.024c2.489,1.776,4.573,3.264,6.654,4.748
		c3.527,2.215,7.055,4.429,10.582,6.644c1.044,0.704,2.088,1.408,3.714,2.504c-2.709,1.638-4.993,3.019-7.277,4.399l-3.785,2.625
		c-0.984,0.631-1.968,1.262-2.951,1.893c-0.966,0.613-1.931,1.228-2.896,1.841c-1.215,0.797-2.431,1.593-3.618,2.371
		c-0.397-0.288-0.632-0.604-0.778-0.938c0.031,0.702,0.081,1.404,0.173,2.104c0.084,0.638-0.917,0.63-1,0
		c-0.187-1.417-0.229-2.839-0.201-4.263c-0.671,0.581-1.372,1.127-2.088,1.652c-0.521,0.382-1.019-0.486-0.505-0.863
		c0.786-0.577,1.554-1.171,2.27-1.831c-2.342,1.361-4.741,2.757-7.548,4.39V3.089c2.851,1.765,5.314,3.29,8.229,5.096
		c0.31-1.785,0.562-3.233,0.91-5.241c-0.79-0.181-1.284-0.727-1.986-1.137c-0.337-0.197-0.282-0.589-0.065-0.797
		C13.292,1.01,7.148,1.011,1.008,1.013c0.004,16.666,0.004,33.326,0.009,49.983C17.682,50.991,34.343,50.991,51,50.987
		C50.995,34.321,50.995,17.661,50.991,1.004z M19.518,4.492c0.111-0.634,1.075-0.365,0.964,0.266
		c-0.142,0.807,0.124,1.622,0.143,2.43c0.016,0.645-0.984,0.644-1,0C19.603,6.271,19.356,5.411,19.518,4.492z M38.771,46.568
		c-0.365-0.104-0.674-0.257-0.958-0.428c-0.185,0.034-0.37,0.058-0.559,0.06c-5.111,0.057-10.145-0.468-15.149-1.239
		c-0.46,1.535-1.986,2.798-3.601,2.739c-5.066-0.185-9.564-1.589-14.118-3.755c-3.913-1.862-1.167-7.276,2.581-6.728
		c0.756-1.262,2.174-2.148,4.02-1.786c2.631,0.517,5.252,1.03,7.876,1.503c0.596-0.669,1.474-1.12,2.641-1.135
		c3.306-0.042,7.019-0.324,10.441,0.181c0.513-0.014,1.026-0.013,1.538-0.043c3.94-0.232,7.259-1.443,11.037-2.256
		c1.871-0.401,4.124,0.529,4.552,2.585C50.566,43.444,46.232,48.701,38.771,46.568z"/>
	<path fill-rule="evenodd" clip-rule="evenodd" fill="#CC0000" d="M25.627,10.619c-0.646-0.333-1.406-0.767-1.999-1.297
		c-0.021-0.019-0.045-0.034-0.063-0.056c-0.04-0.037-0.073-0.076-0.111-0.113c-0.103-0.036-0.17-0.107-0.222-0.19
		c-0.105-0.079-0.166-0.185-0.188-0.302c-0.443-0.64-0.581-1.387-0.06-2.247c0.053-0.087,0.128-0.143,0.21-0.184
		c0.21-0.215,0.61-0.192,0.782,0.064c1.716,0.992,3.015,1.743,4.304,2.487c0.324-0.353,0.647-0.705,0.972-1.058
		c-2.081-1.484-4.165-2.972-6.654-4.748c-0.042-0.007-0.076-0.023-0.116-0.032c-0.349,2.008-0.6,3.457-0.91,5.241
		c-2.915-1.806-5.379-3.331-8.229-5.096v27.163c2.807-1.633,5.207-3.028,7.548-4.39c0.104-0.096,0.216-0.18,0.317-0.278
		c0.044-0.044,0.092-0.067,0.14-0.091c0.245-0.359,0.925-0.28,0.901,0.257c-0.049,1.105-0.056,2.21-0.007,3.313
		c0.146,0.333,0.381,0.649,0.778,0.938c1.188-0.778,2.403-1.574,3.619-2.371l-0.942-0.989c-0.614,0.481-1.242,0.948-1.946,1.292
		c-0.099,0.049-0.206,0.056-0.309,0.044c-0.299,0.14-0.652-0.159-0.694-0.476c-0.114-0.87-0.172-1.855,0.319-2.634
		c0.042-0.065,0.095-0.12,0.143-0.18c0.015-0.018,0.025-0.039,0.043-0.054c0.052-0.062,0.099-0.128,0.151-0.189
		c0.049-0.167,0.119-0.325,0.217-0.467c0.022-0.135,0.1-0.229,0.192-0.303c0.007-0.023,0.02-0.045,0.031-0.067
		c0.011-0.036,0.014-0.072,0.035-0.109c0.628-1.131,1.686-1.627,2.825-2.139c0.098-0.044,0.188-0.1,0.284-0.146
		c0.006-0.066,0.011-0.132,0-0.202c-4.791-0.209-7.111,4.523-11.683,5.591V6.343c5.097,3.266,10.131,6.492,14.415,9.236
		c0.157,0.043,0.313,0.092,0.474,0.126c0.089,0.02,0.156,0.058,0.211,0.105c0.147,0.036,0.29,0.084,0.43,0.147
		c0.034-0.007,0.063-0.021,0.102-0.021c0.184,0,0.299,0.092,0.377,0.208c0.573-0.022,0.804,0.846,0.193,0.962
		c-0.044-0.006-0.074,0.013-0.092,0.059c-0.121,0.138-0.262,0.17-0.395,0.146c-0.348,0.383-0.797,0.611-1.285,0.774
		c-0.134,0.271-0.127,0.552,0.282,0.902c0.159,0.033,0.301,0.035,0.444,0.04c0.067-0.138,0.154-0.267,0.273-0.375
		c0.441-0.397,0.868-0.598,1.41-0.703c0.185-0.219,0.434-0.393,0.723-0.499c0.055-0.02,0.14-0.069,0.232-0.127
		c0.14-0.29,0.204-0.599,0.233-0.915C31.461,13.819,27.838,12.98,25.627,10.619z"/>
	<path fill-rule="evenodd" clip-rule="evenodd" fill="#CC0000" d="M38.825,15.228c0.337-0.287,0.673-0.574,1.01-0.86
		c-3.527-2.215-7.055-4.429-10.582-6.644c-0.324,0.353-0.647,0.705-0.972,1.059l10.402,6.474
		C38.732,15.249,38.771,15.228,38.825,15.228z"/>
	<path fill-rule="evenodd" clip-rule="evenodd" fill="#CC0000" d="M39.835,14.367c-0.405,0.343-0.772,0.565-0.882,0.883
		c0.338,0.041,0.565,0.23,0.684,0.483c0.208,0.093,0.34,0.266,0.421,0.46c0.082,0.023,0.158,0.058,0.242,0.074
		c0.493,0.097,0.464,0.847,0,0.964c-0.058,0.015-0.111,0.038-0.168,0.055c-0.391,0.309-0.807,0.562-1.238,0.78
		c-0.061,0.055-0.132,0.09-0.196,0.138c-0.355,0.495-0.968,0.791-1.614,1.041c-0.1,0.081-0.192,0.172-0.296,0.247
		c-0.457,0.328-0.936,0.605-1.424,0.866c0.303,0.304,0.605,0.608,0.908,0.912c2.284-1.381,4.568-2.762,7.277-4.399
		C41.923,15.775,40.879,15.071,39.835,14.367z"/>
	<path fill-rule="evenodd" clip-rule="evenodd" fill="#CC0000" d="M34.312,20.886c-0.857,0.604-1.716,1.207-2.573,1.81
		c0.249,0.399,0.498,0.8,0.748,1.2l3.785-2.625c-0.303-0.304-0.605-0.608-0.908-0.912C35.018,20.543,34.667,20.72,34.312,20.886z"/>
	<path fill-rule="evenodd" clip-rule="evenodd" fill="#CC0000" d="M32.486,23.896c-0.984,0.631-1.968,1.262-2.951,1.893
		c-0.281-0.38-0.563-0.761-0.844-1.142c1.016-0.65,2.031-1.301,3.047-1.951C31.987,23.095,32.236,23.495,32.486,23.896z"/>
	<path fill-rule="evenodd" clip-rule="evenodd" fill="#CC0000" d="M28.691,24.646c-0.81,0.518-1.619,1.034-2.429,1.551
		c-0.188,0.148-0.376,0.295-0.564,0.442c0.314,0.329,0.628,0.659,0.941,0.989c0.965-0.613,1.93-1.228,2.896-1.841
		C29.254,25.408,28.973,25.027,28.691,24.646z"/>
	<path fill-rule="evenodd" clip-rule="evenodd" fill="#FDFCFC" d="M29.096,16.758c-0.052-0.09-0.066-0.195-0.063-0.298
		c-0.032-0.019-0.063-0.041-0.095-0.059c-0.881-0.275-1.739-0.62-2.633-0.856c-0.623-0.165-0.358-1.129,0.266-0.964
		c0.761,0.201,1.497,0.478,2.242,0.727c0.113-0.036,0.244-0.021,0.377,0.074c0.063,0.044,0.131,0.069,0.194,0.109
		c0.111,0.033,0.226,0.059,0.338,0.089c-4.283-2.744-9.317-5.97-14.415-9.236v20.259c4.572-1.067,6.892-5.8,11.683-5.591
		l0.021-0.021c0.006-0.36,0.053-0.659,0.117-0.932c-0.299,0.101-0.607,0.18-0.915,0.241c-0.766,0.153-1.545-0.208-1.763-1.001
		c-0.196-0.712,0.235-1.609,1.001-1.763c0.019-0.003,0.036-0.008,0.055-0.012c0.116-0.218,0.286-0.403,0.52-0.51
		c0.481-0.221,0.781-0.297,1.083-0.5c0.53-0.357,1.304-0.21,1.737,0.224c0.157,0.157,0.248,0.333,0.313,0.515
		c0.014-0.004,0.025-0.01,0.039-0.014C29.09,17.1,29.051,16.918,29.096,16.758z"/>
	<path fill-rule="evenodd" clip-rule="evenodd" fill="#FDFCFC" d="M37.633,15.102c0.231,0.09,0.455,0.197,0.677,0.31
		c0.104-0.074,0.226-0.132,0.374-0.155c-3.467-2.158-6.935-4.316-10.402-6.475c-1.289-0.744-2.588-1.495-4.304-2.487
		c0.031,0.046,0.051,0.102,0.064,0.164c0.015,0.01,0.031,0.016,0.045,0.027c0.024,0.017,0.037,0.039,0.057,0.058
		c0.285,0.024,0.544,0.243,0.423,0.59C24.519,7.266,24.5,7.374,24.485,7.48c0.045,0.189,0.086,0.379,0.123,0.57
		c0.093,0.141,0.22,0.275,0.415,0.423c0.364,0.275,0.687,0.576,0.922,0.958c0.071,0.052,0.144,0.112,0.215,0.181
		c0.186,0.082,0.372,0.163,0.557,0.239c0.588,0.242,0.331,1.209-0.266,0.964c-0.03-0.013-0.064-0.027-0.095-0.041
		c-0.127,0.059-0.278,0.071-0.44-0.01c-0.093-0.046-0.188-0.095-0.288-0.146c2.211,2.361,5.834,3.2,7.708,5.79
		c0.047-0.521,0.003-1.061-0.002-1.575c-0.007-0.645,0.993-0.645,1,0c0.006,0.583,0.039,1.163-0.016,1.728
		c0.024-0.006,0.049-0.005,0.073-0.01c0.146-0.118,0.301-0.221,0.443-0.342c0.462-0.391,1.109,0.213,0.766,0.633
		c0.026,0.022,0.056,0.036,0.081,0.061c0.328,0.328,0.436,0.795,0.367,1.236c0.166-0.113,0.325-0.232,0.501-0.333
		c0.492-0.401,1-0.774,1.572-1.048c-0.007-0.016-0.02-0.027-0.026-0.043c-0.075-0.114-0.119-0.245-0.141-0.379
		c-0.192-0.096-0.385-0.191-0.587-0.27C36.772,15.835,37.03,14.868,37.633,15.102z"/>
	<path fill-rule="evenodd" clip-rule="evenodd" fill="#FDFCFC" d="M32.919,21.515c-0.403,0.178-0.762-0.177-0.757-0.499
		c-0.488,0.152-1.027,0.062-1.426-0.336c-0.058-0.058-0.096-0.131-0.142-0.199c-0.371,0.219-0.736,0.447-1.101,0.676
		c0.175,0.246,0.14,0.681-0.236,0.824c-0.701,0.268-1.404,0.529-2.093,0.819c-0.295,0.213-0.594,0.417-0.903,0.603
		c0.342,0.156,0.501,0.663,0.073,0.861c-0.523,0.243-1.185,0.525-1.604,0.975c-0.018,0.076-0.039,0.152-0.056,0.229
		c0.363-0.235,0.724-0.475,1.073-0.733c0.395-0.292,0.751,0.129,0.709,0.517c0.256,0.159,0.384,0.494,0.084,0.727
		c-0.093,0.072-0.186,0.146-0.278,0.219c0.81-0.517,1.619-1.033,2.429-1.551l3.047-1.951c0.857-0.603,1.716-1.206,2.573-1.81
		C33.852,21.101,33.388,21.309,32.919,21.515z"/>
</g>
<path fill-rule="evenodd" clip-rule="evenodd" fill="#CC0000" d="M26.706,21.358c0.308-0.138,0.602-0.299,0.896-0.46
	c0.077-0.096,0.153-0.183,0.23-0.292c0.485-0.69,1.272-1.328,2.141-1.361c0.038-0.318,0.029-0.66,0.011-0.985
	c-0.984,0.538-3.873,3.1-4.9,2.825l0.55,0.794C25.975,21.692,26.335,21.525,26.706,21.358z"/>
<path fill-rule="evenodd" clip-rule="evenodd" fill="#CC0000" d="M29.833,18.583c-1.1,0.843-2.314,1.417-3.579,1.936
	c-0.882,0.362-1.065,0.792-1.739,1.42c-0.395,0.369-1.153,0.877-1.76,0.823c-0.01,0.5-0.037,1.039,0.025,1.527
	c0.336-0.143,0.663-0.319,0.989-0.496c0.007-0.01,0.019-0.013,0.027-0.021c0.002-0.062,0.022-0.123,0.056-0.182
	c0.011-0.031,0.012-0.062,0.03-0.093c0.628-1.131,1.686-1.627,2.825-2.139c1.058-0.476,2.025-1.112,3.002-1.734
	c0.139-0.113,0.276-0.224,0.416-0.351c0.67-0.611,2.138-1.1,2.921-1.782c0.009-0.026,0.009-0.051,0.023-0.077
	c0.063-0.115,0.091-0.239,0.131-0.361L29.833,18.583z"/>
<path fill-rule="evenodd" clip-rule="evenodd" fill="#CC0000" d="M38.75,15c-0.004,0.506,2.146,2.093,2.528,1.745
	c0.612-0.559-1.54-2.108-2.195-1.995"/>
<path fill="#CC0000" d="M23,27.5c0.017-0.841,0.216-1.656,0.125-2.5c-0.004-0.04,0.007-0.069,0.01-0.103
	c-0.032-0.253-0.056-0.503-0.051-0.741c-0.612-0.03-0.915,0.508-1.023,1.204c0.116,0.078,0.198,0.204,0.189,0.391
	c-0.025,0.575-0.037,1.149-0.04,1.724c0.095,0.332,0.215,0.6,0.347,0.731c0.478,0.48,0.669,0.196,0.742-0.266
	C23.128,27.869,22.996,27.722,23,27.5z"/>
<path fill-rule="evenodd" clip-rule="evenodd" fill="#CC0000" d="M24.843,22.39c0.545-0.427,1.188-0.728,1.863-1.031
	c1.447-0.65,2.728-1.596,4.093-2.398c0.385-0.446,0.668-0.936,0.625-1.372c-0.482,0.085-0.943,0.218-1.389,0.384
	c-0.055,0.022-0.107,0.046-0.162,0.066c-1.29,0.507-2.461,1.281-3.689,1.983c-0.828,0.473-1.729,1.113-2.452,1.627
	c-0.814,0.579-1.458,1.3-2.482,1.602l0.667-0.083c1.346,0.451,1.591-0.195,2.644-0.668C24.651,22.457,24.749,22.426,24.843,22.39z"
	/>
<path fill-rule="evenodd" clip-rule="evenodd" fill="#CC0000" d="M23.125,25c-0.025-0.235,0.095-0.382,0.259-0.443
	c0.059-0.244,0.154-0.471,0.311-0.664c-0.017-0.173-0.028-0.336-0.028-0.476l-0.417,0.5c-0.091,0.452-0.465,0.585-0.585,1.088
	c-0.086,0.362,0.018,0.821,0.085,1.16c0.087,0.435,0.117,0.903,0.252,1.306C23.022,26.641,23.215,25.834,23.125,25z"/>
<path fill-rule="evenodd" clip-rule="evenodd" fill="#CC0000" d="M31.324,16.145c0.565-0.012,0.79,0.847,0.184,0.962
	c-0.044-0.006-0.074,0.013-0.092,0.059c-0.091,0.104-0.194,0.149-0.296,0.156l0.047,1.178c0.862-0.411,1.578-0.989,2.4-1.314
	c0.169-0.127,0.337-0.257,0.503-0.388c-0.613-0.593-1.135-1.016-1.908-1.4c-0.487-0.242-0.943-0.611-1.162-1.064l0.065,1.63
	C31.181,15.993,31.266,16.06,31.324,16.145z"/>
<path fill="none" d="M22.632,5.438c0.032-0.579,0.146-1.168,0.308-1.718c0.14,0.726,0.146,1.552,0.114,2.324"/>
<path fill="#CC0000" d="M23.045,8.465C23.017,8.403,23,8.332,23,8.25V7c0-0.095,0.026-0.171,0.063-0.238V5.438l-1.002,2.75
	l1.002,1.125V8.738C23.031,8.649,23.031,8.556,23.045,8.465z"/>
<path fill="#CC0000" d="M29.813,15.375c0.364,0.333,0.894,0.455,1.299,0.811c0.411,0.361,0.604,0.873,1.24,0.744
	c0.059-0.475,0.13-1.018-0.23-1.31c-0.333-0.27-0.958-0.194-1.371-0.37"/>
<path fill="#CC0000" d="M23.808,23.869c-0.013-0.059-0.011-0.118,0.004-0.178c0.007-0.32,0.031-0.591,0.086-0.781l-0.211,0.464
	c-0.828,0.804-1.25,1.307-1.188,2.611c0.023,0.49,0.016,2.67,0.875,2.524C24.19,28.372,23.804,25.563,23.808,23.869z"/>
<path fill="#CC0000" d="M23.236,8.964c-0.166-0.123-0.215-0.317-0.188-0.497C23.018,8.405,23,8.334,23,8.25V7
	c0-0.102,0.031-0.182,0.072-0.251c0-0.063-0.01-0.124-0.01-0.187c0-0.269,0.175-0.419,0.378-0.464c0-0.009-0.003-0.028-0.003-0.036
	L23.125,5.75c-0.516,0.422-0.927,1.312-1.014,1.952c-0.084,0.626,0.044,2.024,0.89,2.179c0.357,0.065,0.536-0.182,0.623-0.563
	c-0.046-0.041-0.068-0.098-0.095-0.15C23.392,9.143,23.3,9.062,23.236,8.964z"/>
<path fill="#CC0000" d="M36.438,20.313c0.293-0.299,0.874-0.345,1.277-0.547c0.343-0.171,0.647-0.383,0.949-0.592
	c0.683-0.473,3.116-1.517,2.961-2.424"/>
<path fill="#CC0000" d="M21.737,2.643c-0.329,0.841-0.083,1.924-0.178,2.793c-0.04,0.363-0.021,0.718,0.006,1.072
	c0.029,0.227,0.055,0.454,0.06,0.68c0,0.013-0.006,0.021-0.006,0.034c0.034,0.403,0.058,0.807,0.006,1.216l1.063-5.375
	c-0.089-0.026-0.169-0.074-0.246-0.131C22.183,2.867,21.949,2.77,21.737,2.643z"/>
<text transform="matrix(1 0 0 1 8.25 43.5)" fill="#CC0000" font-family="'MyriadPro-Regular'" font-size="9">MOVE ON</text>
</svg>
