<?xml version="1.0" encoding="utf-8"?>
<!-- Generator: Adobe Illustrator 16.0.0, SVG Export Plug-In . SVG Version: 6.00 Build 0)  -->
<!DOCTYPE svg PUBLIC "-//W3C//DTD SVG 1.1//EN" "http://www.w3.org/Graphics/SVG/1.1/DTD/svg11.dtd">
<svg version="1.1" id="Layer_1" xmlns="http://www.w3.org/2000/svg" xmlns:xlink="http://www.w3.org/1999/xlink" x="0px" y="0px"
	 width="200px" height="200px" viewBox="0 0 200 200" enable-background="new 0 0 200 200" xml:space="preserve">
<g>
	<path fill="#FDFBFB" d="M1.999,2.5v133.273c4.213-2.219,9.279-3.193,15.023-2.166c27.685,4.961,55.586,7.863,83.726,8.285
		c17.203,0.258,46.618,7.219,61.189-3.371c23.569-17.129,46.035,22.021,22.762,38.935c-21.829,15.862-51.586,10.017-76.754,9.637
		c-34.627-0.517-68.824-3.896-102.91-10.004c-1.074-0.192-2.076-0.456-3.036-0.754V200h197.502V2.5H1.999z M135.225,98.104
		c-3,3.505-6.826,1.164-8.736-0.669c-8.025-7.696-15.483-15.992-24.731-25.737c-7.549,8.253-13.973,15.717-20.902,22.675
		c-3.73,3.742-7.639,11.589-13.959,5.045c-5.303-5.489,1.865-9.033,5.052-12.68c6.407-7.332,13.007-14.496,20.406-22.698
		c-5.917-5.983-12.761-12.876-19.568-19.803c-2.296-2.338-4.817-4.558-6.606-7.248c-0.866-1.306-0.986-4.016-0.191-5.319
		c1.576-2.575,4.508-2.803,6.7-0.761c5.289,4.928,10.231,10.231,15.455,15.23c12.078,11.562,12.678,11.443,24.852-0.905
		c4.596-4.661,9.305-9.285,14.445-13.308c1.762-1.376,5.193-1.373,7.158,1.063c1.785,2.219,2.233,5.129,0.23,7.17
		c-8.206,8.353-16.66,16.463-25.852,25.474c6.123,9.274,15.586,16.301,24.031,24.292C135.289,92.084,138.262,94.546,135.225,98.104z
		"/>
	<path fill="#CC0000" d="M101.756,71.698c-7.549,8.253-13.973,15.717-20.902,22.675c-3.73,3.742-7.639,11.589-13.959,5.045
		c-5.303-5.489,1.865-9.033,5.052-12.68c6.407-7.332,13.007-14.496,20.406-22.698c-5.917-5.983-12.761-12.876-19.568-19.803
		c-2.296-2.338-4.817-4.558-6.606-7.248c-0.866-1.306-0.986-4.016-0.191-5.319c1.576-2.575,4.508-2.803,6.7-0.761
		c5.289,4.928,10.231,10.231,15.455,15.23c12.078,11.562,12.677,11.443,24.852-0.905c4.596-4.661,9.305-9.285,14.444-13.308
		c1.763-1.376,5.194-1.373,7.16,1.063c1.784,2.219,2.232,5.129,0.229,7.17c-8.206,8.353-16.66,16.463-25.853,25.474
		c6.125,9.274,15.586,16.301,24.032,24.292c2.28,2.16,5.253,4.622,2.216,8.18c-3,3.506-6.826,1.164-8.736-0.669
		C118.462,89.738,111.004,81.443,101.756,71.698z"/>
</g>
<text transform="matrix(1 0 0 1 28.0005 171)" fill="#CC0000" font-family="'MyriadPro-Regular'" font-size="48">REJECT</text>
</svg>
